# xmcd CD database file
#
# Track frame offsets:
#	150
#	43592
#	95780
#	133172
#	184687
#	240262
#
# Disc length: 3546 seconds
#
# Revision: 0
# Processed by: cddbd v1.5.1PL2 Copyright (c) Steve Scherf et al.
# Submitted via: CDex 1.51
#
DISCID=4b0dd806
DTITLE=アントニン・ドヴォルザーク　ベドルジハ・スメタナ - SYMPHONY No.9 FROM THE NEW WORLD etc.
DYEAR=1900
DGENRE=Classical
TTITLE0=交響曲第9番ホ短調　作品95「新世界より」　第1楽章 - Adagio-Allegro molto
TTITLE1=交響曲第9番ホ短調　作品95「新世界より」　第2楽章 - Largo
TTITLE2=交響曲第9番ホ短調　作品95「新世界より」　第3楽章 - Scherzo - Molto vivace
TTITLE3=交響曲第9番ホ短調　作品95「新世界より」　第4楽章 - Allegro con fuoco
TTITLE4=交響詩「モルダウ」
TTITLE5=スラブ舞曲第10番ホ短調　作品72-2
EXTD=
EXTT0=
EXTT1=
EXTT2=
EXTT3=
EXTT4=
EXTT5=
PLAYORDER=
